# xmcd
#
# Track frame offsets:
#	150
#	18973
#	32967
#	52279
#	71681
#	84066
#	100868
#	113460
#	129227
#	144893
#	160185
#	177103
#	194017
#	209610
#	225926
#	242923
#	258077
#	275126
#	295866
#
# Disc length: 4164 seconds
#
# Revision: 1
# Processed by: cddbd v1.5.1PL0 Copyright (c) Steve Scherf et al.
# Submitted via: audiograbber 1.80
#
DISCID=08104213
DTITLE=Various Artist - ERG NCT 132
DYEAR=1900
DGENRE=
TTITLE0=Brad Paisley - Alcohol
TTITLE1=Phil Vassar - Good Ole Days
TTITLE2=Trisha Yearwood - Georgia Rain
TTITLE3=Montgomery Gentry - Something To Be Proud Of
TTITLE4=Billy Dean - This Is The Life
TTITLE5=Lee Ann Womack - He Oughta Know That By Know
TTITLE6=Steve Azar - Doin' It Right
TTITLE7=Cowboy Crush - Nobody Ever Died Of A Broken Heart
TTITLE8=Fanny Grace - Sweet Tea And Cadillacs
TTITLE9=Mark Chestnut - Hard Secret To Keep, A
TTITLE10=Rhonda Vincent - I've Forgotten You
TTITLE11=Britton Jack - Fallin'
TTITLE12=Blaine Larsen - Best Man, The
TTITLE13=Jason Aldean - Hicktown
TTITLE14=Robert Earl Keen - What I Really Mean
TTITLE15=Glenn Cummings - Good Ole Days
TTITLE16=Michael Buble - Home
TTITLE17=Road Hammers - I'm A Road Hammer
TTITLE18=Neal McCoy - Billy's Got His Beer Goggles On
EXTD=
EXTT0=
EXTT1=
EXTT2=
EXTT3=
EXTT4=
EXTT5=
EXTT6=
EXTT7=
EXTT8=
EXTT9=
EXTT10=
EXTT11=
EXTT12=
EXTT13=
EXTT14=
EXTT15=
EXTT16=
EXTT17=
EXTT18=
PLAYORDER=
